<svg xmlns="http://www.w3.org/2000/svg" viewBox="0 0 200 200" width="200" height="200">
  <circle cx="100" cy="100" r="96" fill="#ecfaf6"/>
  <g transform="translate(46 58) rotate(-4)">
    <rect x="0" y="0" width="126" height="76" rx="12" fill="#4ec08a"/>
    <rect x="9" y="9" width="108" height="58" rx="7" fill="#bff0d5"/>
    <circle cx="63" cy="38" r="21" fill="#2fa96e"/>
    <path d="M63 26l5 10 11 1-8 8 2 11-10-5-10 5 2-11-8-8 11-1z" fill="#c9f2dc"/>
    <circle cx="26" cy="38" r="6" fill="#2fa96e"/>
    <circle cx="100" cy="38" r="6" fill="#2fa96e"/>
  </g>
  <g transform="translate(28 96)">
    <circle cx="42" cy="42" r="42" fill="#e8a317"/>
    <circle cx="42" cy="38" r="42" fill="#fbbf3b"/>
    <circle cx="42" cy="38" r="33" fill="#fcd06a"/>
    <text x="42" y="52" text-anchor="middle" font-family="Fredoka, Arial, sans-serif" font-weight="700" font-size="34" fill="#f7b32b">10</text>
  </g>
  <g transform="translate(104 116)">
    <circle cx="32" cy="32" r="32" fill="#9aa4ad"/>
    <circle cx="32" cy="29" r="32" fill="#c3ccd4"/>
    <circle cx="32" cy="29" r="25" fill="#d8e0e6"/>
    <text x="32" y="41" text-anchor="middle" font-family="Fredoka, Arial, sans-serif" font-weight="700" font-size="28" fill="#aab4bd">2</text>
  </g>
  <path d="M168 44l3 7 7 3-7 3-3 7-3-7-7-3 7-3z" fill="#2dd4bf"/>
  <path d="M30 40l2 5 5 2-5 2-2 5-2-5-5-2 5-2z" fill="#2dd4bf"/>
  <circle cx="160" cy="150" r="4" fill="#fbbf3b"/>
</svg>
